<svg width="37" height="36" viewBox="0 0 37 36" fill="none" xmlns="http://www.w3.org/2000/svg">
<path d="M11.75 9C11.1287 9 10.625 9.50368 10.625 10.125C10.625 10.7463 11.1287 11.25 11.75 11.25H25.25C25.8713 11.25 26.375 10.7463 26.375 10.125C26.375 9.50368 25.8713 9 25.25 9H11.75Z" fill="#6D6D6D"/>
<path d="M10.625 14.625C10.625 14.0037 11.1287 13.5 11.75 13.5H25.25C25.8713 13.5 26.375 14.0037 26.375 14.625C26.375 15.2463 25.8713 15.75 25.25 15.75H11.75C11.1287 15.75 10.625 15.2463 10.625 14.625Z" fill="#6D6D6D"/>
<path d="M11.75 18C11.1287 18 10.625 18.5037 10.625 19.125C10.625 19.7463 11.1287 20.25 11.75 20.25H25.25C25.8713 20.25 26.375 19.7463 26.375 19.125C26.375 18.5037 25.8713 18 25.25 18H11.75Z" fill="#6D6D6D"/>
<path d="M11.75 22.5C11.1287 22.5 10.625 23.0037 10.625 23.625C10.625 24.2463 11.1287 24.75 11.75 24.75H18.5C19.1213 24.75 19.625 24.2463 19.625 23.625C19.625 23.0037 19.1213 22.5 18.5 22.5H11.75Z" fill="#6D6D6D"/>
<path d="M5 4.5C5 2.01472 7.01472 0 9.5 0H27.5C29.9853 0 32 2.01472 32 4.5V31.5C32 33.9853 29.9853 36 27.5 36H9.5C7.01472 36 5 33.9853 5 31.5V4.5ZM27.5 2.25H9.5C8.25736 2.25 7.25 3.25736 7.25 4.5V31.5C7.25 32.7426 8.25736 33.75 9.5 33.75H27.5C28.7426 33.75 29.75 32.7426 29.75 31.5V4.5C29.75 3.25736 28.7426 2.25 27.5 2.25Z" fill="#6D6D6D"/>
</svg>
